<svg xmlns="http://www.w3.org/2000/svg" version="1.1" xmlns:xlink="http://www.w3.org/1999/xlink" xmlns:svgjs="http://svgjs.com/svgjs" width="64" height="64"><svg width="64" height="64" viewBox="0 0 64 64" fill="none" xmlns="http://www.w3.org/2000/svg">
<rect width="64" height="64" fill="#0D0033"></rect>
<path d="M17 45V17H33.2817C37.0648 17 39.9312 17.6347 41.8809 18.9042C43.8598 20.1448 44.8492 22.0057 44.8492 24.4869C44.8492 26.0737 44.4563 27.3287 43.6706 28.2519C42.8849 29.1463 41.7645 29.8099 40.3095 30.2427C38.8836 30.6754 37.1958 30.9495 35.246 31.0649L35.4206 30.762C36.8465 30.7908 38.1852 30.8918 39.4365 31.0649C40.7169 31.238 41.8373 31.5554 42.7976 32.017C43.7579 32.4786 44.5145 33.1278 45.0674 33.9644C45.6203 34.7723 45.8968 35.8398 45.8968 37.1669C45.8968 38.898 45.4312 40.3405 44.5 41.4946C43.5688 42.6198 42.2738 43.4709 40.6151 44.0479C38.9563 44.6249 37.0357 44.9423 34.8532 45H17ZM22.8056 40.2396H34.2421C36.0754 40.2396 37.4868 39.9511 38.4762 39.374C39.4656 38.7682 39.9603 37.8161 39.9603 36.5178C39.9603 35.5657 39.6693 34.8733 39.0873 34.4405C38.5053 34.0077 37.7341 33.7481 36.7738 33.6615C35.8135 33.5461 34.7804 33.4884 33.6746 33.4884H22.8056V40.2396ZM22.8056 28.8578H33.0635C34.8968 28.8578 36.3082 28.5981 37.2976 28.0788C38.287 27.5307 38.7817 26.6074 38.7817 25.3091C38.7817 24.0108 38.287 23.102 37.2976 22.5827C36.3082 22.0345 34.9987 21.7604 33.369 21.7604H22.8056V28.8578Z" fill="white"></path>
<path d="M55.0913 40.0665V45H48.5V40.0665H55.0913Z" fill="white"></path>
</svg><style>@media (prefers-color-scheme: light) { :root { filter: none; } }
@media (prefers-color-scheme: dark) { :root { filter: contrast(0.8333333333333334) brightness(1.7); } }
</style></svg>