<svg width="32" height="32" viewBox="0 0 32 32" fill="none" xmlns="http://www.w3.org/2000/svg">
<path d="M26 3.99988H23V2.99988C23 2.73466 22.8946 2.48031 22.7071 2.29277C22.5196 2.10523 22.2652 1.99988 22 1.99988C21.7348 1.99988 21.4804 2.10523 21.2929 2.29277C21.1054 2.48031 21 2.73466 21 2.99988V3.99988H11V2.99988C11 2.73466 10.8946 2.48031 10.7071 2.29277C10.5196 2.10523 10.2652 1.99988 10 1.99988C9.73478 1.99988 9.48043 2.10523 9.29289 2.29277C9.10536 2.48031 9 2.73466 9 2.99988V3.99988H6C5.46957 3.99988 4.96086 4.21059 4.58579 4.58566C4.21071 4.96073 4 5.46944 4 5.99987V25.9999C4 26.5303 4.21071 27.039 4.58579 27.4141C4.96086 27.7891 5.46957 27.9999 6 27.9999H26C26.5304 27.9999 27.0391 27.7891 27.4142 27.4141C27.7893 27.039 28 26.5303 28 25.9999V5.99987C28 5.46944 27.7893 4.96073 27.4142 4.58566C27.0391 4.21059 26.5304 3.99988 26 3.99988ZM13 23.4999C12.2041 23.4991 11.4407 23.1847 10.875 22.6249C10.688 22.4374 10.583 22.1834 10.583 21.9186C10.583 21.6538 10.688 21.3998 10.875 21.2124C10.967 21.1182 11.0768 21.0435 11.1981 20.9924C11.3194 20.9414 11.4497 20.9151 11.5813 20.9151C11.7128 20.9151 11.8431 20.9414 11.9644 20.9924C12.0857 21.0435 12.1955 21.1182 12.2875 21.2124C12.4795 21.3958 12.7345 21.4987 13 21.4999C13.2652 21.4999 13.5196 21.3945 13.7071 21.207C13.8946 21.0194 14 20.7651 14 20.4999C14 20.2346 13.8946 19.9803 13.7071 19.7928C13.5196 19.6052 13.2652 19.4999 13 19.4999H12.6875L12.6375 19.4749H12.6L12.5375 19.4499H12.525L12.45 19.3999H12.425L12.375 19.3624L12.325 19.3249L12.3 19.2999L12.2625 19.2624C12.197 19.187 12.1423 19.1028 12.1 19.0124C12.0641 18.9459 12.0388 18.8742 12.025 18.7999C12.0125 18.7874 12.0125 18.7749 12.0125 18.7499C12.0131 18.7431 12.0123 18.7363 12.0101 18.7298C12.008 18.7234 12.0045 18.7174 12 18.7124V18.4999V18.4124C12 18.3874 12.0125 18.3749 12.0125 18.3624V18.3124C12.0224 18.2977 12.0269 18.28 12.025 18.2624C12.0375 18.2499 12.0375 18.2374 12.0375 18.2124L12.0625 18.1749C12.0625 18.1499 12.0625 18.1374 12.075 18.1249L12.1 18.0749V18.0374L12.125 17.9874L12.15 17.9499L12.1875 17.8999L12.2125 17.8749L12.9125 16.9999H11.5C11.2348 16.9999 10.9804 16.8945 10.7929 16.707C10.6054 16.5194 10.5 16.2651 10.5 15.9999C10.5 15.7346 10.6054 15.4803 10.7929 15.2928C10.9804 15.1052 11.2348 14.9999 11.5 14.9999H15C15.1879 15.0009 15.3717 15.0549 15.5304 15.1556C15.689 15.2564 15.8161 15.3998 15.897 15.5694C15.9779 15.739 16.0094 15.928 15.9878 16.1147C15.9662 16.3013 15.8925 16.4782 15.775 16.6249L14.675 18.0124C15.2076 18.3715 15.6109 18.892 15.8256 19.4975C16.0402 20.1029 16.0548 20.7613 15.8673 21.3757C15.6798 21.9901 15.3 22.528 14.7838 22.9104C14.2676 23.2928 13.6424 23.4994 13 23.4999ZM21 22.4999C21 22.7651 20.8946 23.0194 20.7071 23.207C20.5196 23.3945 20.2652 23.4999 20 23.4999C19.7348 23.4999 19.4804 23.3945 19.2929 23.207C19.1054 23.0194 19 22.7651 19 22.4999V17.9999L18.6 18.2999C18.3867 18.4558 18.1209 18.5222 17.8593 18.4848C17.5977 18.4474 17.3611 18.3093 17.2 18.0999C17.0409 17.8877 16.9725 17.621 17.01 17.3584C17.0476 17.0959 17.1878 16.859 17.4 16.6999L19.4 15.1999C19.5486 15.0884 19.7252 15.0206 19.9102 15.0039C20.0952 14.9872 20.2811 15.0224 20.4472 15.1054C20.6133 15.1885 20.753 15.3162 20.8507 15.4741C20.9483 15.6321 21 15.8142 21 15.9999V22.4999ZM26 9.99987H6V5.99987H9V6.99987C9 7.26509 9.10536 7.51944 9.29289 7.70698C9.48043 7.89452 9.73478 7.99987 10 7.99987C10.2652 7.99987 10.5196 7.89452 10.7071 7.70698C10.8946 7.51944 11 7.26509 11 6.99987V5.99987H21V6.99987C21 7.26509 21.1054 7.51944 21.2929 7.70698C21.4804 7.89452 21.7348 7.99987 22 7.99987C22.2652 7.99987 22.5196 7.89452 22.7071 7.70698C22.8946 7.51944 23 7.26509 23 6.99987V5.99987H26V9.99987Z" fill="#0D0033"/>
</svg>
