<svg width="32" height="26" viewBox="0 0 32 26" fill="none" xmlns="http://www.w3.org/2000/svg">
<path d="M24.4002 9.79886H16.8002V12.5989C16.8002 14.5839 15.1852 16.1989 13.2002 16.1989C11.2152 16.1989 9.60016 14.5839 9.60016 12.5989V6.51886L6.35516 8.46886C5.39016 9.04386 4.80016 10.0889 4.80016 11.2089V13.5739L0.800164 15.8839C0.0351638 16.3239 -0.229836 17.3038 0.215164 18.0688L4.21516 24.9988C4.65516 25.7638 5.63516 26.0238 6.40016 25.5838L11.5702 22.5988H18.4002C20.1652 22.5988 21.6002 21.1638 21.6002 19.3988H22.4002C23.2852 19.3988 24.0002 18.6838 24.0002 17.7988V14.5989H24.4002C25.0652 14.5989 25.6002 14.0639 25.6002 13.3989V10.9989C25.6002 10.3339 25.0652 9.79886 24.4002 9.79886ZM31.7852 7.92886L27.7852 0.998869C27.3452 0.23387 26.3652 -0.0261302 25.6002 0.413869L20.4302 3.39887H15.3202C14.7202 3.39887 14.1352 3.56887 13.6252 3.88387L11.9502 4.92886C11.4802 5.21886 11.2002 5.73386 11.2002 6.28386V12.5989C11.2002 13.7039 12.0952 14.5989 13.2002 14.5989C14.3052 14.5989 15.2002 13.7039 15.2002 12.5989V8.19886H24.4002C25.9452 8.19886 27.2002 9.45386 27.2002 10.9989V12.4239L31.2002 10.1139C31.9652 9.66886 32.2252 8.69386 31.7852 7.92886Z" fill="#641AAD"/>
</svg>
