<svg width="20" height="20" viewBox="0 0 20 20" fill="none" xmlns="http://www.w3.org/2000/svg">
<path d="M10.0001 7.39658C8.5665 7.39658 7.39658 8.5665 7.39658 10.0001C7.39658 11.4337 8.5665 12.6036 10.0001 12.6036C11.4337 12.6036 12.6036 11.4337 12.6036 10.0001C12.6036 8.5665 11.4337 7.39658 10.0001 7.39658ZM17.8087 10.0001C17.8087 8.92197 17.8185 7.85361 17.7579 6.77743C17.6974 5.52744 17.4122 4.41806 16.4981 3.504C15.5821 2.58798 14.4747 2.30478 13.2247 2.24423C12.1466 2.18369 11.0782 2.19345 10.002 2.19345C8.92392 2.19345 7.85556 2.18369 6.77939 2.24423C5.52939 2.30478 4.42002 2.58994 3.50595 3.504C2.58994 4.42001 2.30673 5.52744 2.24619 6.77743C2.18564 7.85556 2.19541 8.92392 2.19541 10.0001C2.19541 11.0763 2.18564 12.1466 2.24619 13.2227C2.30673 14.4727 2.59189 15.5821 3.50595 16.4962C4.42197 17.4122 5.52939 17.6954 6.77939 17.7559C7.85752 17.8165 8.92588 17.8067 10.002 17.8067C11.0802 17.8067 12.1485 17.8165 13.2247 17.7559C14.4747 17.6954 15.5841 17.4102 16.4981 16.4962C17.4142 15.5802 17.6974 14.4727 17.7579 13.2227C17.8204 12.1466 17.8087 11.0782 17.8087 10.0001ZM10.0001 14.0059C7.7833 14.0059 5.99424 12.2169 5.99424 10.0001C5.99424 7.78329 7.7833 5.99423 10.0001 5.99423C12.2169 5.99423 14.006 7.78329 14.006 10.0001C14.006 12.2169 12.2169 14.0059 10.0001 14.0059ZM14.17 6.76572C13.6524 6.76572 13.2345 6.34775 13.2345 5.83017C13.2345 5.31259 13.6524 4.89462 14.17 4.89462C14.6876 4.89462 15.1056 5.31259 15.1056 5.83017C15.1057 5.95307 15.0816 6.07479 15.0347 6.18837C14.9877 6.30195 14.9188 6.40514 14.8319 6.49204C14.745 6.57895 14.6418 6.64786 14.5282 6.69482C14.4146 6.74178 14.2929 6.76587 14.17 6.76572Z" fill="#EEEDF0"/>
</svg>
