<svg width="10" height="17" viewBox="0 0 10 17" fill="none" xmlns="http://www.w3.org/2000/svg">
<path d="M9.29045 0.306275C9.15192 0.252241 9.00092 0.238533 8.85492 0.266737C8.70892 0.294942 8.57389 0.363905 8.46545 0.46565L0.96545 7.96565C0.824614 8.10785 0.745605 8.29989 0.745605 8.50002C0.745605 8.70016 0.824614 8.89221 0.96545 9.0344L8.46545 16.5344C8.60942 16.672 8.80067 16.7492 8.99982 16.75C9.09936 16.7496 9.19794 16.7305 9.29045 16.6938C9.42695 16.6364 9.54341 16.5399 9.62516 16.4164C9.70691 16.293 9.75029 16.1481 9.74982 16V1.00002C9.75029 0.851956 9.70691 0.707063 9.62516 0.583606C9.54341 0.460149 9.42695 0.363651 9.29045 0.306275Z" fill="#CCC8D5"/>
</svg>
