<svg width="30" height="32" viewBox="0 0 30 32" fill="none" xmlns="http://www.w3.org/2000/svg">
<path d="M14.1379 0V5.07795H15.8627V0H14.1377H14.1379ZM7.09494 1.526L5.68181 2.51541L8.5939 6.67397L10.0062 5.68453L7.09494 1.526ZM22.9053 1.526L19.994 5.68456L21.4066 6.674L24.3186 2.51541L22.9055 1.526H22.9053ZM14.9999 6.46731C10.7805 6.46731 7.36008 9.02952 7.36008 12.1906L11.7007 25.3359H18.2999L22.6401 12.1906C22.6401 9.02957 19.2199 6.46731 15.0003 6.46731H14.9999ZM1.27925 7.99128L0.689941 9.61299L5.45925 11.3494L6.05075 9.72843L1.27914 7.99128H1.27925ZM28.7209 7.99128L23.9493 9.72856L24.5388 11.3497L29.3104 9.61301L28.7209 7.99128ZM5.82035 15.4048L0.916342 16.7202L1.3613 18.385L6.26531 17.0715L5.82043 15.4048H5.82035ZM24.1798 15.4048L23.7352 17.0715L28.6392 18.3848L29.0838 16.7199L24.1798 15.4048V15.4048ZM11.6045 26.2942V28.5791H18.3961V26.2945H11.6045L11.6045 26.2942ZM11.6045 29.715V32H18.3961V29.7154H11.6045L11.6045 29.715Z" fill="white"/>
</svg>
