<svg width="28" height="25" viewBox="0 0 28 25" fill="none" xmlns="http://www.w3.org/2000/svg">
<path d="M5.54117 24.3053C5.34973 24.4717 5.11477 24.5801 4.86388 24.6177C4.61299 24.6553 4.35658 24.6206 4.12476 24.5175C3.89293 24.4145 3.69531 24.2475 3.55509 24.036C3.41488 23.8246 3.33789 23.5776 3.33317 23.3239V20.3333C2.62593 20.3333 1.94765 20.0523 1.44755 19.5522C0.947455 19.0521 0.666504 18.3738 0.666504 17.6666V8.33325C0.666504 7.62601 0.947455 6.94773 1.44755 6.44763C1.94765 5.94754 2.62593 5.66659 3.33317 5.66659H17.9998C18.7071 5.66659 19.3854 5.94754 19.8855 6.44763C20.3856 6.94773 20.6665 7.62601 20.6665 8.33325V17.6666C20.6665 18.3738 20.3856 19.0521 19.8855 19.5522C19.3854 20.0523 18.7071 20.3333 17.9998 20.3333H11.3372L5.54117 24.3053ZM21.9998 13.6893C21.9956 13.8532 21.9956 14.0173 21.9998 14.1813V13.6879C22.0065 13.5453 22.0078 11.7586 22.0052 8.32925C22.0041 7.26908 21.5822 6.25269 20.8322 5.50341C20.0822 4.75413 19.0653 4.33325 18.0052 4.33325H7.33317V2.99992C7.33317 2.29267 7.61412 1.6144 8.11422 1.1143C8.61432 0.614203 9.29259 0.333252 9.99984 0.333252H24.6665C25.3737 0.333252 26.052 0.614203 26.5521 1.1143C27.0522 1.6144 27.3332 2.29267 27.3332 2.99992V12.3333C27.3332 13.0405 27.0522 13.7188 26.5521 14.2189C26.052 14.719 25.3737 14.9999 24.6665 14.9999V17.9906C24.6618 18.2442 24.5848 18.4913 24.4446 18.7027C24.3044 18.9141 24.1067 19.0812 23.8749 19.1842C23.6431 19.2872 23.3867 19.322 23.1358 19.2844C22.8849 19.2468 22.6499 19.1384 22.4585 18.9719L21.9998 18.6573V13.6893Z" fill="white"/>
</svg>
