<svg width="18" height="20" viewBox="0 0 18 20" fill="none" xmlns="http://www.w3.org/2000/svg">
<path fill-rule="evenodd" clip-rule="evenodd" d="M16.6528 1.78791L16.9759 1.52967L16.9077 1.36484L16.5857 1.55275L16.5341 1.27033L16.6868 0.540659L16.4154 0.140659L16.177 0.117582L15.8539 0L15.8033 0.282418L15.9561 0.47033L14.9539 1.48242L14.5627 1.45934L13.6616 1.83517H13.4583L13.1341 2.2L13.0363 2.19121L12.5077 2.08791L12.3451 2.29011L12.2418 2.67143L11.9835 2.87582L11.5253 3.72528L11.3033 3.87253L11.1923 4.83187L11.0242 5.2956L10.9484 5.72637L10.6209 6.13736L10.3484 6.34396L10.166 6.75275L9.8363 7.18571L9.60113 7.47473L9.38245 7.68572L9.00992 8.06374L8.27915 7.56154L7.82421 7.88462L7.54289 8.28572L7.19674 8.74835L6.89014 8.92418L6.28904 9.43736L5.77586 9.36374L5.72421 9.48132L6.09454 9.61209L5.05718 10.5659L4.18904 11.2934L2.99344 12.1769L2.29674 12.8626L2.44399 13.2L2.57915 13.6396L2.77146 13.9022L2.72531 14.6396L2.56047 14.7143L2.28245 14.6989L2.04728 14.7429L1.50882 15.0176L0.868164 16.2319L1.12421 16.4297L2.47586 17.3791L3.3341 18.022L4.24289 18.7462L4.91981 19.2846L4.99344 19.3615L5.70772 19.9022L7.95058 17.9967L7.50882 17.056L7.47586 17.0187L7.32201 16.844L6.57366 16.8681L6.47256 16.7736H6.18355L6.08135 16.633L6.04729 16.1154L5.99674 15.9978L5.60553 15.9275L5.58794 15.8802L5.96926 15.4835L5.99674 15.4571H6.20003L6.40443 15.5275L6.59893 15.7604L6.91432 16.1385L7.30553 15.9506L7.35168 15.9582L7.44069 15.9736L7.74728 16.3736L7.91652 16.4912L8.85168 16.4681L9.95608 15.6451L10.3132 15.6681L10.5682 15.4571L10.6704 15.1505L10.9077 14.8923L10.9934 14.5154L11.1462 13.9275L11.0616 13.4571L10.8572 13.2692L9.90553 13.5275L9.88465 13.5418L8.37586 13.9506L8.13739 13.5978L7.96816 13.0341L7.74728 11.9989L7.89344 11.411L7.90003 11.3868L7.94069 11.3769L10.1572 10.8549L10.9934 10.6582L11.9451 10.2813L12.0473 10.1165L12.6077 7.83517L12.8033 7.14176L12.8462 6.98791L13.2704 6.11758L13.3726 5.08242L13.4583 4.77692L13.7803 4.35275L14.3242 3.83517L14.7835 3.69451L14.9704 3.45934L15.277 3.24725L15.3275 3.27033L15.6165 3.76484L15.9901 4.11758L16.3132 4.25824L16.9759 3.97692L17.0616 3.71758L16.6528 1.78791Z" fill="#777480"/>
</svg>
