<svg width="32" height="24" viewBox="0 0 32 24" fill="none" xmlns="http://www.w3.org/2000/svg">
<path d="M31.058 1.92305C29.1185 1.10955 27.1775 0.800049 25.2375 0.800049C19.079 0.799549 12.921 3.91705 6.7625 3.91705C5.218 3.91705 3.6745 3.72105 2.13 3.23105C1.9565 3.17605 1.7825 3.15005 1.6125 3.15005C0.752 3.15005 0 3.81605 0 4.74055V20.6036C0 21.2351 0.3615 21.8336 0.942 22.0766C2.8815 22.8906 4.8225 23.2001 6.7625 23.2001C12.921 23.2001 19.0795 20.0826 25.238 20.0826C26.7825 20.0826 28.326 20.2786 29.8705 20.7686C30.044 20.8236 30.218 20.8496 30.388 20.8496C31.2485 20.8496 32.0005 20.1835 32.0005 19.2591V3.39655C32 2.76455 31.6385 2.16655 31.058 1.92305ZM2.4 5.81105C3.406 6.06305 4.456 6.18955 5.536 6.25755C5.242 7.72705 3.95 8.83455 2.4 8.83455V5.81105ZM2.4 20.0611V17.6721C4.1185 17.6721 5.509 19.0356 5.5855 20.7421C4.459 20.6516 3.406 20.4265 2.4 20.0611ZM16 16.8001C13.7905 16.8001 12 14.6505 12 12C12 9.34905 13.791 7.20005 16 7.20005C18.209 7.20005 20 9.34905 20 12C20 14.6516 18.2085 16.8001 16 16.8001ZM29.6 18.1891C28.724 17.9696 27.8145 17.8465 26.884 17.767C27.1775 16.463 28.259 15.4731 29.6 15.3031V18.1891ZM29.6 6.38355C28.0555 6.18805 26.857 4.89855 26.8095 3.30605C27.7865 3.41455 28.714 3.61755 29.6 3.93905V6.38355Z" fill="#641AAD"/>
</svg>
