<svg width="28" height="28" viewBox="0 0 28 28" fill="none" xmlns="http://www.w3.org/2000/svg">
<path d="M15.3332 3.33341C17.8085 3.33341 20.1825 4.31675 21.9328 6.06708C23.6832 7.81742 24.6665 10.1914 24.6665 12.6667C24.6665 13.0204 24.807 13.3595 25.057 13.6096C25.3071 13.8596 25.6462 14.0001 25.9998 14.0001C26.3535 14.0001 26.6926 13.8596 26.9426 13.6096C27.1927 13.3595 27.3332 13.0204 27.3332 12.6667C27.3332 9.48415 26.0689 6.4319 23.8184 4.18147C21.568 1.93103 18.5158 0.666748 15.3332 0.666748C14.9795 0.666748 14.6404 0.807224 14.3904 1.05727C14.1403 1.30732 13.9998 1.64646 13.9998 2.00008C13.9998 2.3537 14.1403 2.69284 14.3904 2.94289C14.6404 3.19294 14.9795 3.33341 15.3332 3.33341ZM26.9998 19.2134C26.9265 18.9994 26.7999 18.8075 26.632 18.6559C26.464 18.5043 26.2602 18.3979 26.0398 18.3467L18.0398 16.5201C17.8227 16.4708 17.5967 16.4768 17.3824 16.5373C17.1681 16.5979 16.9724 16.7111 16.8132 16.8667C16.6265 17.0401 16.6132 17.0534 15.7465 18.7067C12.8708 17.3816 10.5665 15.0679 9.25317 12.1867C10.9465 11.3334 10.9598 11.3334 11.1332 11.1334C11.2888 10.9742 11.402 10.7785 11.4626 10.5642C11.5231 10.3499 11.5291 10.1239 11.4798 9.90675L9.65317 2.00008C9.60203 1.77968 9.49565 1.57591 9.34403 1.40796C9.19241 1.24002 9.00055 1.11342 8.7865 1.04008C8.47513 0.928867 8.15358 0.848482 7.8265 0.800081C7.48951 0.721942 7.14561 0.677281 6.79984 0.666748C5.17318 0.666748 3.61314 1.31294 2.46292 2.46316C1.31269 3.61338 0.666504 5.17342 0.666504 6.80008C0.67356 12.2437 2.83915 17.4623 6.68837 21.3115C10.5376 25.1608 15.7562 27.3264 21.1998 27.3334C22.0053 27.3334 22.8028 27.1748 23.547 26.8665C24.2911 26.5583 24.9672 26.1065 25.5368 25.537C26.1063 24.9675 26.5581 24.2913 26.8663 23.5472C27.1745 22.8031 27.3332 22.0055 27.3332 21.2001C27.3336 20.8607 27.3068 20.5219 27.2532 20.1867C27.1971 19.8556 27.1124 19.5299 26.9998 19.2134Z" fill="white"/>
</svg>
