<svg width="10" height="17" viewBox="0 0 10 17" fill="none" xmlns="http://www.w3.org/2000/svg">
<path d="M9.64619 7.94368L2.14619 0.443677C2.03776 0.341933 1.90273 0.272969 1.75673 0.244765C1.61073 0.21656 1.45973 0.230268 1.3212 0.284302C1.18469 0.341678 1.06823 0.438176 0.986482 0.561633C0.904733 0.685091 0.861357 0.829983 0.86182 0.978052V15.9781C0.861357 16.1261 0.904733 16.271 0.986482 16.3945C1.06823 16.5179 1.18469 16.6144 1.3212 16.6718C1.41371 16.7085 1.51228 16.7276 1.61182 16.7281C1.81098 16.7272 2.00223 16.65 2.14619 16.5124L9.64619 9.01243C9.78703 8.87023 9.86604 8.67819 9.86604 8.47805C9.86604 8.27792 9.78703 8.08587 9.64619 7.94368Z" fill="#CCC8D5"/>
</svg>
