<svg width="24" height="24" viewBox="0 0 24 24" fill="none" xmlns="http://www.w3.org/2000/svg">
<path fill-rule="evenodd" clip-rule="evenodd" d="M14.4416 12.7724C14.3052 12.782 13.6006 12.8211 12.029 12.8211C10.7789 12.8211 9.89138 12.7862 9.58 12.7724C4.74909 12.5747 1.14324 11.7921 1.14324 10.8552C1.14324 9.91827 4.74909 9.13678 9.58 8.93586V11.9931C9.89592 12.0142 10.8005 12.0639 12.0506 12.0639C13.5506 12.0639 14.3018 12.0058 14.437 11.9941V8.93797C19.2577 9.13784 22.8556 9.92039 22.8556 10.8552C22.8556 11.79 19.2589 12.5726 14.437 12.7714L14.4416 12.7724ZM14.4416 8.62178V5.88605H21.1692V1.71423H2.85241V5.88605H9.57886V8.62072C4.11156 8.85443 0 9.86222 0 11.0699C0 12.2775 4.11156 13.2843 9.57886 13.519V22.2857H14.4405V13.5159C19.8953 13.2822 24 12.2754 24 11.0688C24 9.86222 19.8987 8.85549 14.4405 8.62072L14.4416 8.62178Z" fill="white"/>
</svg>
