<svg width="28" height="30" viewBox="0 0 28 30" fill="none" xmlns="http://www.w3.org/2000/svg">
<path d="M7.33317 0C6.97955 0 6.64041 0.140476 6.39036 0.390524C6.14031 0.640573 5.99984 0.979711 5.99984 1.33333C5.99984 1.68696 6.14031 2.02609 6.39036 2.27614C6.64041 2.52619 6.97955 2.66667 7.33317 2.66667H17.9998C18.3535 2.66667 18.6926 2.52619 18.9426 2.27614C19.1927 2.02609 19.3332 1.68696 19.3332 1.33333C19.3332 0.979711 19.1927 0.640573 18.9426 0.390524C18.6926 0.140476 18.3535 0 17.9998 0L7.33317 0ZM0.666504 17.3333C0.666504 14.1507 1.93079 11.0985 4.18122 8.84805C6.43166 6.59762 9.48391 5.33333 12.6665 5.33333C15.8491 5.33333 18.9013 6.59762 21.1518 8.84805C23.4022 11.0985 24.6665 14.1507 24.6665 17.3333C24.6665 20.5159 23.4022 23.5682 21.1518 25.8186C18.9013 28.0691 15.8491 29.3333 12.6665 29.3333C9.48391 29.3333 6.43166 28.0691 4.18122 25.8186C1.93079 23.5682 0.666504 20.5159 0.666504 17.3333ZM11.3332 20C11.3332 20.3536 11.4736 20.6928 11.7237 20.9428C11.9737 21.1929 12.3129 21.3333 12.6665 21.3333C13.0201 21.3333 13.3593 21.1929 13.6093 20.9428C13.8594 20.6928 13.9998 20.3536 13.9998 20V12C13.9998 11.6464 13.8594 11.3072 13.6093 11.0572C13.3593 10.8071 13.0201 10.6667 12.6665 10.6667C12.3129 10.6667 11.9737 10.8071 11.7237 11.0572C11.4736 11.3072 11.3332 11.6464 11.3332 12V20ZM26.9438 10.2747C26.6942 10.525 26.3553 10.6659 26.0017 10.6664C25.6482 10.6669 25.3089 10.5269 25.0585 10.2773L22.3865 7.616C22.259 7.49318 22.1572 7.3462 22.0871 7.18363C22.017 7.02106 21.98 6.84616 21.9782 6.66913C21.9764 6.4921 22.0099 6.31648 22.0767 6.15253C22.1435 5.98858 22.2423 5.83958 22.3673 5.71422C22.4924 5.58886 22.6411 5.48964 22.8048 5.42237C22.9686 5.3551 23.1441 5.32111 23.3211 5.3224C23.4982 5.32368 23.6732 5.3602 23.836 5.42984C23.9987 5.49948 24.146 5.60084 24.2692 5.728L26.9412 8.38933C27.1915 8.63902 27.3324 8.9779 27.3329 9.33145C27.3334 9.685 27.1934 10.0243 26.9438 10.2747Z" fill="#641AAD"/>
</svg>
